<?xml version="1.0" encoding="UTF-8" standalone="no"?>
<!-- Created with Inkscape (http://www.inkscape.org/) -->

<svg
   xmlns:dc="http://purl.org/dc/elements/1.1/"
   xmlns:cc="http://creativecommons.org/ns#"
   xmlns:rdf="http://www.w3.org/1999/02/22-rdf-syntax-ns#"
   xmlns:svg="http://www.w3.org/2000/svg"
   xmlns="http://www.w3.org/2000/svg"
   xmlns:xlink="http://www.w3.org/1999/xlink"
   xmlns:sodipodi="http://sodipodi.sourceforge.net/DTD/sodipodi-0.dtd"
   xmlns:inkscape="http://www.inkscape.org/namespaces/inkscape"
   width="439.15625"
   height="537.28125"
   id="svg2"
   version="1.1"
   inkscape:version="0.48.5 r10040"
   sodipodi:docname="jyväsk2.svg">
  <defs
     id="defs4">
    <clipPath
       clipPathUnits="userSpaceOnUse"
       id="clipPath4582-7-9-0-5-5-8-2-9">
      <path
         inkscape:connector-curvature="0"
         id="path4584-9-3-9-8-4-1-1-3"
         d="m 850.49278,967.65161 c 0,0.81937 -0.66424,1.4836 -1.48361,1.4836 -0.81936,0 -1.4836,-0.66423 -1.4836,-1.4836 0,-0.81937 0.66424,-1.4836 1.4836,-1.4836 0.81937,0 1.48361,0.66423 1.48361,1.4836 z"
         style="fill:#bf9f4f;fill-opacity:1;stroke:none" />
    </clipPath>
    <clipPath
       clipPathUnits="userSpaceOnUse"
       id="clipPath4582-7-9-0-5-5-8-2-9-5-1">
      <path
         inkscape:connector-curvature="0"
         id="path4584-9-3-9-8-4-1-1-3-9-4"
         d="m 850.49278,967.65161 c 0,0.81937 -0.66424,1.4836 -1.48361,1.4836 -0.81936,0 -1.4836,-0.66423 -1.4836,-1.4836 0,-0.81937 0.66424,-1.4836 1.4836,-1.4836 0.81937,0 1.48361,0.66423 1.48361,1.4836 z"
         style="fill:#bf9f4f;fill-opacity:1;stroke:none" />
    </clipPath>
    <clipPath
       clipPathUnits="userSpaceOnUse"
       id="clipPath4582-7-9-0-5-5-8-2-3-1-8-1">
      <path
         inkscape:connector-curvature="0"
         id="path4584-9-3-9-8-4-1-1-5-0-5-7"
         d="m 850.49278,967.65161 c 0,0.81937 -0.66424,1.4836 -1.48361,1.4836 -0.81936,0 -1.4836,-0.66423 -1.4836,-1.4836 0,-0.81937 0.66424,-1.4836 1.4836,-1.4836 0.81937,0 1.48361,0.66423 1.48361,1.4836 z"
         style="fill:#bf9f4f;fill-opacity:1;stroke:none" />
    </clipPath>
    <clipPath
       clipPathUnits="userSpaceOnUse"
       id="clipPath4582-5-8-0-1">
      <path
         inkscape:connector-curvature="0"
         id="path4584-5-5-9-6"
         d="m 850.49278,967.65161 c 0,0.81937 -0.66424,1.4836 -1.48361,1.4836 -0.81936,0 -1.4836,-0.66423 -1.4836,-1.4836 0,-0.81937 0.66424,-1.4836 1.4836,-1.4836 0.81937,0 1.48361,0.66423 1.48361,1.4836 z"
         style="fill:#bf9f4f;fill-opacity:1;stroke:none" />
    </clipPath>
    <clipPath
       clipPathUnits="userSpaceOnUse"
       id="clipPath4582-5-8-0-1-2">
      <path
         inkscape:connector-curvature="0"
         id="path4584-5-5-9-6-7"
         d="m 850.49278,967.65161 c 0,0.81937 -0.66424,1.4836 -1.48361,1.4836 -0.81936,0 -1.4836,-0.66423 -1.4836,-1.4836 0,-0.81937 0.66424,-1.4836 1.4836,-1.4836 0.81937,0 1.48361,0.66423 1.48361,1.4836 z"
         style="fill:#bf9f4f;fill-opacity:1;stroke:none" />
    </clipPath>
  </defs>
  <sodipodi:namedview
     id="base"
     pagecolor="#f6f3f1"
     bordercolor="#666666"
     borderopacity="1.0"
     inkscape:pageopacity="0"
     inkscape:pageshadow="2"
     inkscape:zoom="0.98994949"
     inkscape:cx="180.99115"
     inkscape:cy="273.35059"
     inkscape:document-units="px"
     inkscape:current-layer="layer1"
     showgrid="false"
     showborder="true"
     inkscape:window-width="1920"
     inkscape:window-height="1017"
     inkscape:window-x="-8"
     inkscape:window-y="-8"
     inkscape:window-maximized="1"
     fit-margin-top="0"
     fit-margin-left="0"
     fit-margin-right="0"
     fit-margin-bottom="0"
     inkscape:object-nodes="false"
     showguides="true"
     inkscape:guide-bbox="true"
     inkscape:showpageshadow="false" />
  <metadata
     id="metadata7">
    <rdf:RDF>
      <cc:Work
         rdf:about="">
        <dc:format>image/svg+xml</dc:format>
        <dc:type
           rdf:resource="http://purl.org/dc/dcmitype/StillImage" />
        <dc:title />
      </cc:Work>
    </rdf:RDF>
  </metadata>
  <g
     inkscape:label="Layer 1"
     inkscape:groupmode="layer"
     id="layer1"
     transform="translate(-120.125,-142.3125)">
    <g
       id="g4308">
      <path
         sodipodi:nodetypes="ccccc"
         style="color:#000000;fill:#05649c;fill-opacity:1;stroke:#000000;stroke-width:1.75;stroke-linecap:butt;stroke-linejoin:miter;stroke-miterlimit:4;stroke-opacity:1;stroke-dasharray:none;stroke-dashoffset:0;marker:none;visibility:visible;display:inline;overflow:visible;enable-background:accumulate"
         d="m 121.01134,389.60446 0,-246.42857 437.39202,0 0,246.42857 z"
         id="path10942"
         inkscape:connector-curvature="0" />
      <path
         inkscape:connector-curvature="0"
         id="path10944"
         d="m 558.40336,389.60446 c 0,0 0,83.89131 0,147.53093 0,63.63961 -33.33504,112.12693 -115.1574,107.58124 -81.82236,-4.54568 -90.91373,15.15229 -103.53861,33.33504 -12.62489,-18.18275 -21.71626,-37.88072 -103.53862,-33.33504 -81.82235,4.54569 -115.15739,-43.94163 -115.15739,-107.58124 0,-63.63962 0,-147.53093 0,-147.53093 z"
         style="color:#000000;fill:#cdcbce;fill-opacity:1;stroke:#000000;stroke-width:1.75;stroke-linecap:butt;stroke-linejoin:miter;stroke-miterlimit:4;stroke-opacity:1;stroke-dasharray:none;stroke-dashoffset:0;marker:none;visibility:visible;display:inline;overflow:visible;enable-background:accumulate"
         sodipodi:nodetypes="csscsscc" />
      <g
         transform="translate(1.5829305,0)"
         id="g4296">
        <g
           id="g3198"
           style="stroke-width:1.5;stroke-miterlimit:4;stroke-dasharray:none">
          <path
             inkscape:connector-curvature="0"
             id="path3177"
             transform="translate(251.8261,258.31053)"
             d="m -20.28125,231.84375 c -6.785529,0.45858 -8.09375,16.5 -8.09375,16.5 l 4,0.28125 c 0,0 -0.399376,-3.98035 1.0625,-9.21875 1.607142,-5.75893 4.0625,-5.375 4.0625,-5.375 l 0.40625,-2.0625 c -0.502232,-0.11719 -0.985131,-0.15557 -1.4375,-0.125 z m 213.15625,0 c -0.45237,-0.0306 -0.93527,0.008 -1.4375,0.125 l 0.40625,2.0625 c 0,0 2.45536,-0.38393 4.0625,5.375 1.46188,5.2384 1.0625,9.21875 1.0625,9.21875 l 4,-0.28125 c 0,0 -1.30822,-16.04142 -8.09375,-16.5 z"
             style="color:#000000;fill:#8a502a;fill-opacity:1;stroke:#000000;stroke-width:1.5;stroke-linecap:butt;stroke-linejoin:miter;stroke-miterlimit:4;stroke-opacity:1;stroke-dasharray:none;stroke-dashoffset:0;marker:none;visibility:visible;display:inline;overflow:visible;enable-background:accumulate" />
          <path
             sodipodi:nodetypes="csscccccsccscccccssccc"
             inkscape:connector-curvature="0"
             id="path10948"
             d="m 58.210041,305.21509 c 0,0 -12.500638,4.92449 -23.10724,4.16688 -10.606602,-0.75761 -22.349625,-4.54569 -31.0621908,-11.36422 -8.7125657,-6.81853 -10.985409,-13.63706 -10.985409,-13.63706 l -4.5456862,1.13643 c -8.333759,-6.06092 -10.606602,-18.94036 -10.606602,-18.94036 l -4.545687,-0.37881 c -2.65165,-6.06092 -3.030457,-19.31917 -3.030457,-19.31917 0,0 20.5660881,4.29979 56.99466,-12.30735 36.428571,-16.60714 51.964286,-60 51.964286,-60 l 14.025205,0 c 0,0 15.53572,43.39286 51.96429,60 36.42857,16.60714 56.99466,12.30735 56.99466,12.30735 0,0 -0.37881,13.25825 -3.03046,19.31917 l -4.54568,0.37881 c 0,0 -2.27285,12.87944 -10.60661,18.94036 l -4.54568,-1.13643 c 0,0 -2.27285,6.81853 -10.98541,13.63706 -8.71257,6.81853 -20.45559,10.60661 -31.06219,11.36422 -10.6066,0.75761 -23.10724,-4.16688 -23.10724,-4.16688 0,0 -12.12183,9.09137 -28.08828,9.09137 -15.966449,0 -28.088279,-9.09137 -28.088279,-9.09137 z"
             style="color:#000000;fill:#8a502a;fill-opacity:1;stroke:#000000;stroke-width:1.5;stroke-linecap:butt;stroke-linejoin:miter;stroke-miterlimit:4;stroke-opacity:1;stroke-dasharray:none;stroke-dashoffset:0;marker:none;visibility:visible;display:inline;overflow:visible;enable-background:accumulate"
             transform="translate(251.8261,258.31053)" />
          <path
             inkscape:connector-curvature="0"
             d="m 380.93096,568.53444 c -26.62742,-6.25027 -40.1158,-24.15665 -40.1158,-24.15665 l -5.38148,0 c 0,0 -13.48838,17.90638 -40.1158,24.15665 m -40.17857,-8.57142 c 53.29649,-10.82441 79.75866,-39.69236 79.75866,-39.69236 l 6.4529,0 c 0,0 26.46217,28.86795 79.75866,39.69236 M 244.42502,542.82016 c 69.06521,-18.05004 88.86579,-45.0495 88.86579,-45.0495 l 9.66722,0 c 0,0 19.80058,26.99946 88.86579,45.0495 M 229.66206,524.87405 c 65.10873,-4.71522 102.52119,-51.21088 102.52119,-51.21088 l 11.88234,0 c 0,0 37.41246,46.49566 102.52119,51.21088"
             style="color:#000000;fill:none;stroke:#000000;stroke-width:1.5;stroke-linecap:butt;stroke-linejoin:miter;stroke-miterlimit:4;stroke-opacity:1;stroke-dasharray:none;stroke-dashoffset:0;marker:none;visibility:visible;display:inline;overflow:visible;enable-background:accumulate"
             id="path3194" />
          <path
             sodipodi:nodetypes="cczccc"
             transform="translate(251.8261,258.31053)"
             inkscape:connector-curvature="0"
             id="path10946"
             d="M 83.571429,313.8033 78.214286,154.21428 c 0,0 3.389355,-2 8.084032,-2 4.694677,0 8.084032,2 8.084032,2 L 89.02521,313.8033 z"
             style="color:#000000;fill:#8a502a;fill-opacity:1;stroke:#000000;stroke-width:1.5;stroke-linecap:butt;stroke-linejoin:miter;stroke-miterlimit:4;stroke-opacity:1;stroke-dasharray:none;stroke-dashoffset:0;marker:none;visibility:visible;display:inline;overflow:visible;enable-background:accumulate" />
        </g>
        <g
           transform="translate(-2.05e-5,0)"
           id="g4083">
          <g
             id="g4076">
            <path
               style="color:#000000;fill:#05649c;fill-opacity:1;stroke:#000000;stroke-width:1.5;stroke-linecap:butt;stroke-linejoin:miter;stroke-miterlimit:4;stroke-opacity:1;stroke-dasharray:none;stroke-dashoffset:0;marker:none;visibility:visible;display:inline;overflow:visible;enable-background:accumulate"
               d="m 476.95871,565.66848 c 0,0 -11.98312,9.09137 -27.76685,9.09137 -15.78375,0 -27.76686,-9.09137 -27.76686,-9.09137 0,0 -11.98311,9.09137 -27.76686,9.09137 -15.78373,0 -27.76685,-9.09137 -27.76685,-9.09137 0,0 -11.98311,9.09137 -27.76685,9.09137 -15.78375,0 -27.76686,-9.09137 -27.76686,-9.09137 0,0 -11.98311,9.09137 -27.76685,9.09137 -15.78374,0 -27.76686,-9.09137 -27.76686,-9.09137 0,0 -11.98311,9.09137 -27.76685,9.09137 -15.78374,0 -27.76685,-9.09137 -27.76685,-9.09137 l 0,-10.17857 c 0,0 11.98311,9.09137 27.76685,9.09137 15.78374,0 27.76685,-9.09137 27.76685,-9.09137 0,0 11.98312,9.09137 27.76686,9.09137 15.78374,0 27.76685,-9.09137 27.76685,-9.09137 0,0 11.98311,9.09137 27.76686,9.09137 15.78374,0 27.76685,-9.09137 27.76685,-9.09137 0,0 11.98312,9.09137 27.76685,9.09137 15.78375,0 27.76686,-9.09137 27.76686,-9.09137 0,0 11.98311,9.09137 27.76686,9.09137 15.78373,0 27.76685,-9.09137 27.76685,-9.09137 z"
               id="path4039"
               inkscape:connector-curvature="0"
               sodipodi:nodetypes="ccccccccccccccccccccccc" />
          </g>
          <use
             height="346"
             width="265.50333"
             transform="translate(0,20.624999)"
             id="use4079"
             xlink:href="#g4076"
             y="0"
             x="0" />
          <use
             x="0"
             y="0"
             xlink:href="#g4076"
             id="use4081"
             transform="translate(0,41.25)"
             width="265.50333"
             height="346" />
        </g>
      </g>
      <g
         style="stroke-width:1.44775093;stroke-miterlimit:4;stroke-dasharray:none"
         transform="matrix(1.0360898,0,0,1.0360898,-15.252072,-10.174891)"
         id="g4158">
        <g
           style="stroke-width:1.44775093;stroke-miterlimit:4;stroke-dasharray:none"
           id="g4116">
          <path
             sodipodi:nodetypes="ccccccccccccccccc"
             transform="translate(251.8261,258.31053)"
             inkscape:connector-curvature="0"
             id="path4102"
             d="m 84.642857,-64.982144 c 0,0 -17.142857,-1.071428 -25.714285,-28.392857 L 5.0892857,-96.589286 c 0,0 -0.8035714,10.714285 5.0892853,18.214285 L 22.767857,-82.660715 30,-74.625001 l -9.910714,5.892857 c 0,0 6.696428,6.428572 17.142857,11.785715 l 8.839286,-7.232143 8.571428,4.553571 -5.625,7.767858 c 0,0 6.696429,4.285714 13.125,5.892857 l 4.821429,-7.5 c 0,0 6.160714,2.142857 9.375,3.482143 L 73.125,-40.875001 c 0,0 5.625,2.142858 15,2.142858 z"
             style="color:#000000;fill:#cdcbce;fill-opacity:1;stroke:#000000;stroke-width:1.44775093;stroke-linecap:butt;stroke-linejoin:miter;stroke-miterlimit:4;stroke-opacity:1;stroke-dasharray:none;stroke-dashoffset:0;marker:none;visibility:visible;display:inline;overflow:visible;enable-background:accumulate" />
          <path
             sodipodi:nodetypes="ccccccccccccccccc"
             inkscape:connector-curvature="0"
             id="path4124"
             d="m 348.72155,193.32839 c 0,0 17.14286,-1.07143 25.71429,-28.39286 l 53.83928,-3.21429 c 0,0 0.80358,10.71429 -5.08928,18.21429 l -12.58929,-4.28571 -7.23214,8.03571 9.91071,5.89286 c 0,0 -6.69642,6.42857 -17.14285,11.78571 l -8.83929,-7.23214 -8.57143,4.55357 5.625,7.76786 c 0,0 -6.69643,4.28571 -13.125,5.89285 l -4.82143,-7.5 c 0,0 -6.16071,2.14286 -9.375,3.48215 l 3.21429,9.10714 c 0,0 -5.625,2.14286 -15,2.14286 z"
             style="color:#000000;fill:#cdcbce;fill-opacity:1;stroke:#000000;stroke-width:1.44775093;stroke-linecap:butt;stroke-linejoin:miter;stroke-miterlimit:4;stroke-opacity:1;stroke-dasharray:none;stroke-dashoffset:0;marker:none;visibility:visible;display:inline;overflow:visible;enable-background:accumulate" />
          <path
             sodipodi:nodetypes="ccscccscczc"
             transform="translate(251.8261,258.31053)"
             inkscape:connector-curvature="0"
             id="path4100"
             d="M 85.892857,119.21429 84.464286,-74.089286 c -9.107143,0 -10.606341,-9.054603 -7.232143,-13.392858 3.75,-4.821429 8.303571,-6.964285 8.303571,-6.964285 1.470237,-4.410714 5.233439,-5.343684 5.233439,-5.343684 0,0 3.763192,0.932973 5.233447,5.343683 0,0 4.55357,2.14286 8.30357,6.96429 3.3742,4.33825 1.875,13.39285 -7.23215,13.39285 l -1.42857,193.30358 c 0,0 -1.04339,1.67859 -4.876293,1.67859 -3.832903,0 -4.8763,-1.67859 -4.8763,-1.67859 z"
             style="color:#000000;fill:#cdcbce;fill-opacity:1;stroke:#000000;stroke-width:1.44775093;stroke-linecap:butt;stroke-linejoin:miter;stroke-miterlimit:4;stroke-opacity:1;stroke-dasharray:none;stroke-dashoffset:0;marker:none;visibility:visible;display:inline;overflow:visible;enable-background:accumulate" />
        </g>
        <g
           style="stroke-width:1.44775093;stroke-miterlimit:4;stroke-dasharray:none"
           id="g4112">
          <path
             inkscape:connector-curvature="0"
             id="path4106"
             transform="translate(251.8261,258.31053)"
             d="m 128.40625,-36.0625 c -5.4217,-0.149823 -13.12486,3.831622 -15.8125,10.96875 C 106.80579,-25.136983 105.6875,-22 105.6875,-22 c -2.84105,0.568211 -3.21875,3.21875 -3.21875,3.21875 l 1.71875,-0.1875 1.6875,1.875 c 0,0 1.125,-2.461136 1.125,-3.21875 1.70463,-2.651651 6.84375,-2.84375 6.84375,-2.84375 7.95496,2.841054 13.625,2.40625 13.625,2.40625 -0.16159,8.240787 -12.849,12.802741 -30.96875,21.9375 l -0.0625,8.375 c 14.40119,-7.8552733 34.48849,-16.1908249 38.9375,-23.9375 7.9876,-13.908086 -0.54018,-21.419643 -6.96875,-21.6875 z M 85.0625,7.3125 C 63.941736,20.237762 71.741756,40.625409 77.28125,48.75 c 5.682108,8.333759 24.23017,15.554248 23.09375,28.8125 -0.396269,4.623134 -2.102594,7.837389 -4.5,10.5 l -0.0625,9.15625 C 108.86976,88.390254 112.39142,66.988976 96,56.375 78.55709,45.080152 76.509199,31.325352 81.8125,20.71875 82.442375,19.459 83.621777,18.193897 85.15625,16.875 L 85.0625,7.3125 z m 0.65625,88.84375 c -2.355616,1.723436 -4.748211,3.651588 -6.9375,6.03125 -8.712566,9.47018 -4.90625,17.78125 -4.90625,17.78125 0,0 2.747365,-8.99786 11.90625,-16.4375 l -0.0625,-7.375 z"
             style="color:#000000;fill:#cdcbce;fill-opacity:1;stroke:#000000;stroke-width:1.44775093;stroke-linecap:butt;stroke-linejoin:miter;stroke-miterlimit:4;stroke-opacity:1;stroke-dasharray:none;stroke-dashoffset:0;marker:none;visibility:visible;display:inline;overflow:visible;enable-background:accumulate" />
          <path
             sodipodi:nodetypes="cccccccccccccccccc"
             inkscape:connector-curvature="0"
             id="path4108"
             d="m 375.7636,228.12303 c -0.18727,1.1237 0.19452,2.01836 0.78315,2.87595 1.86519,-0.74823 2.41275,-1.97247 2.81055,-3.5322 -2.13634,-1.21619 -4.33157,-0.71591 -5.36408,1.40815 0,0 1.21054,-0.39955 1.77038,-0.7519 z m 2.43745,-0.0625 c -0.0969,0.77424 -0.67147,1.16286 -1.17952,1.46938 -0.31073,-0.0805 -0.39169,-0.64042 -0.17983,-1.65686 0.42305,-0.13632 0.89594,0.006 1.35935,0.18748 z m -13.28125,5.09375 -0.96875,0.1875 c 0.2746,0.92774 1.10381,1.73831 1.8125,2.21875 l 0.5625,-0.64286 c -0.65571,-0.41002 -1.06492,-1.11955 -1.40625,-1.76339 z m 13.65625,4 0.0625,1 c 0,0 3.26751,-0.18227 4.26562,-3.57813 -1.68046,2.49701 -4.32812,2.57813 -4.32812,2.57813 z"
             style="font-size:medium;font-style:normal;font-variant:normal;font-weight:normal;font-stretch:normal;text-indent:0;text-align:start;text-decoration:none;line-height:normal;letter-spacing:normal;word-spacing:normal;text-transform:none;direction:ltr;block-progression:tb;writing-mode:lr-tb;text-anchor:start;baseline-shift:baseline;color:#000000;fill:#000000;fill-opacity:1;stroke:none;stroke-width:1.44775093;marker:none;visibility:visible;display:inline;overflow:visible;enable-background:accumulate;font-family:Sans;-inkscape-font-specification:Sans" />
        </g>
        <g
           style="stroke-width:1.44775093;stroke-miterlimit:4;stroke-dasharray:none"
           id="g4126"
           transform="matrix(-1,0,0,1,685.19051,0)">
          <path
             sodipodi:nodetypes="csscccssccccccccccscssccc"
             inkscape:connector-curvature="0"
             id="path4128"
             transform="matrix(-1,0,0,1,433.36441,258.31053)"
             d="m 53.15625,-36.0625 c -6.42857,0.267857 -14.9876,7.779414 -7,21.6875 6.64737,11.5744781 48.259199,24.487148 53.5625,35.09375 3.92373,7.847465 3.81547,17.415388 -3.5625,26.4375 l -0.05846,9.467719 -0.004,-0.155219 C 99.398188,53.861269 102.47088,51.359372 104.25,48.75 109.93211,40.416242 117.99445,19.193917 94.78125,6.34375 71.568049,-6.5064164 54.25191,-11.090416 54.0625,-20.75 c 0,0 5.70129,0.434804 13.65625,-2.40625 0,0 5.10787,0.192099 6.8125,2.84375 0,0.757614 1.125,3.21875 1.125,3.21875 l 1.71875,-1.875 1.6875,0.1875 c 0,0 -0.3777,-2.650539 -3.21875,-3.21875 0,0 -1.11829,-3.136983 -6.90625,-3.09375 -2.68764,-7.137128 -10.35955,-11.118573 -15.78125,-10.96875 z m 32.28125,92.5 C 68.109796,67.756411 73.219428,91.187839 88.34375,98.75 c 15.15229,7.57615 19.3125,21.21875 19.3125,21.21875 0,0 3.80632,-8.31107 -4.90625,-17.78125 C 94.037435,92.717319 82.292673,90.820752 81.15625,77.5625 80.772708,73.08784 82.648483,69.308098 85.5,65.9375 l -0.05691,-9.597019 z"
             style="color:#000000;fill:#cdcbce;fill-opacity:1;stroke:#000000;stroke-width:1.44775093;stroke-linecap:butt;stroke-linejoin:miter;stroke-miterlimit:4;stroke-opacity:1;stroke-dasharray:none;stroke-dashoffset:0;marker:none;visibility:visible;display:inline;overflow:visible;enable-background:accumulate" />
          <path
             style="font-size:medium;font-style:normal;font-variant:normal;font-weight:normal;font-stretch:normal;text-indent:0;text-align:start;text-decoration:none;line-height:normal;letter-spacing:normal;word-spacing:normal;text-transform:none;direction:ltr;block-progression:tb;writing-mode:lr-tb;text-anchor:start;baseline-shift:baseline;color:#000000;fill:#000000;fill-opacity:1;stroke:none;stroke-width:1.44775093;marker:none;visibility:visible;display:inline;overflow:visible;enable-background:accumulate;font-family:Sans;-inkscape-font-specification:Sans"
             d="m 375.7636,228.12303 c -0.18727,1.1237 0.19452,2.01836 0.78315,2.87595 1.86519,-0.74823 2.41275,-1.97247 2.81055,-3.5322 -2.13634,-1.21619 -4.33157,-0.71591 -5.36408,1.40815 0,0 1.21054,-0.39955 1.77038,-0.7519 z m 2.43745,-0.0625 c -0.0969,0.77424 -0.67147,1.16286 -1.17952,1.46938 -0.31073,-0.0805 -0.39169,-0.64042 -0.17983,-1.65686 0.42305,-0.13632 0.89594,0.006 1.35935,0.18748 z m -13.28125,5.09375 -0.96875,0.1875 c 0.2746,0.92774 1.10381,1.73831 1.8125,2.21875 l 0.5625,-0.64286 c -0.65571,-0.41002 -1.06492,-1.11955 -1.40625,-1.76339 z m 13.65625,4 0.0625,1 c 0,0 3.26751,-0.18227 4.26562,-3.57813 -1.68046,2.49701 -4.32812,2.57813 -4.32812,2.57813 z"
             id="path4130"
             inkscape:connector-curvature="0"
             sodipodi:nodetypes="cccccccccccccccccc" />
        </g>
      </g>
    </g>
  </g>
</svg>
